<?xml version="1.0" encoding="iso-8859-1"?>
<!-- Generator: Adobe Illustrator 19.0.0, SVG Export Plug-In . SVG Version: 6.00 Build 0)  -->
<svg version="1.1" id="Capa_1" xmlns="http://www.w3.org/2000/svg" xmlns:xlink="http://www.w3.org/1999/xlink" x="0px" y="0px"
	 viewBox="0 0 468.293 468.293" style="enable-background:new 0 0 468.293 468.293;" xml:space="preserve">
<circle style="fill:#EBF0F3;" cx="242.638" cy="247.688" r="150.228"/>
<circle style="fill:#D5D6DB;" cx="242.638" cy="247.688" r="100.152"/>
<path style="fill:#64798A;" d="M445.23,394.755L445.23,394.755c-14.454,0-24.584-21.28-22.874-44.223l7.37-125.269h30.626
	l7.752,125.269C469.815,373.475,459.684,394.755,445.23,394.755z"/>
<path style="fill:#FCD462;" d="M458.384,225.263V70.376c0,0-63.096,34.821-27.073,154.887"/>
<path style="fill:#64798A;" d="M34.744,397.299L34.744,397.299c-14.454,0-24.584-21.28-22.874-44.223l9.338-125.269H48.28
	l9.338,125.269C59.328,376.02,49.197,397.299,34.744,397.299z"/>
<g>
	<path style="fill:#F6C358;" d="M0,175.918c0,0,7.2,45.574,27.975,51.89h15.341c0,0,22.561-10.829,20.305-51.89H0z"/>
	<polygon style="fill:#F6C358;" points="5.866,98.083 7.896,98.083 13.762,175.918 0,175.918 	"/>
	<polygon style="fill:#F6C358;" points="55.884,98.083 57.914,98.083 63.78,175.918 50.018,175.918 	"/>
	<polygon style="fill:#F6C358;" points="30.875,98.083 32.905,98.083 38.771,175.918 25.009,175.918 	"/>
</g>
<g>
</g>
<g>
</g>
<g>
</g>
<g>
</g>
<g>
</g>
<g>
</g>
<g>
</g>
<g>
</g>
<g>
</g>
<g>
</g>
<g>
</g>
<g>
</g>
<g>
</g>
<g>
</g>
<g>
</g>
</svg>
