<svg xmlns="http://www.w3.org/2000/svg" height="512" viewBox="0 0 480 480" width="512" class=""><g><path d="m232 64c0 92.785156-78.800781 168-176 168v-168zm0 0" fill="#f58dd1" data-original="#F58DD1" class="" data-old_color="#f58dd1" style="fill:#FFFFFF"></path><path d="m208 64h-152v166.40625c85.839844-11.183594 152-81.398438 152-166.40625zm0 0" fill="#f7aadc" data-original="#F7AADC" class="" data-old_color="#f7aadc" style="fill:#78A6D2"></path><path d="m400 232v248h-88v-136c0-53.617188 37.679688-98.433594 88-109.425781zm0 0" fill="#f58dd1" data-original="#F58DD1" class="" data-old_color="#f58dd1" style="fill:#FFFFFF"></path><path d="m400 242.871094v237.128906h-64v-136c0-44.664062 26.183594-83.144531 64-101.128906zm0 0" fill="#f7aadc" data-original="#F7AADC" class="" data-old_color="#f7aadc" style="fill:#78A6D2"></path><path d="m80 232v248h88v-136c0-53.617188-37.679688-98.433594-88-109.425781zm0 0" fill="#f58dd1" data-original="#F58DD1" class="" data-old_color="#f58dd1" style="fill:#FFFFFF"></path><path d="m80 242.871094v237.128906h64v-136c0-44.664062-26.183594-83.144531-64-101.128906zm0 0" fill="#f7aadc" data-original="#F7AADC" class="" data-old_color="#f7aadc" style="fill:#78A6D2"></path><path d="m206.183594 64h-150.183594v142.40625c77.609375-10.109375 139.097656-68.476562 150.183594-142.40625zm0 0" fill="#f8a5c9" data-original="#F8A5C9" class="" data-old_color="#f8a5c9" style="fill:#FFFFFF"></path><path d="m182.183594 64h-126.183594v137.503906c66.007812-17.839844 116.273438-71.390625 126.183594-137.503906zm0 0" fill="#fbd2e4" data-original="#FBD2E4" class="active-path" data-old_color="#fbd2e4" style="fill:#C0BFBF"></path><path d="m248 64c0 92.785156 78.800781 168 176 168v-168zm0 0" fill="#f58dd1" data-original="#F58DD1" class="" data-old_color="#f58dd1" style="fill:#FFFFFF"></path><path d="m272 64h152v166.40625c-85.839844-11.183594-152-81.398438-152-166.40625zm0 0" fill="#f7aadc" data-original="#F7AADC" class="" data-old_color="#f7aadc" style="fill:#78A6D2"></path><path d="m273.816406 64h150.183594v142.40625c-77.609375-10.109375-139.097656-68.476562-150.183594-142.40625zm0 0" fill="#f8a5c9" data-original="#F8A5C9" class="" data-old_color="#f8a5c9" style="fill:#FFFFFF"></path><path d="m297.816406 64h126.183594v137.503906c-66.007812-17.839844-116.273438-71.390625-126.183594-137.503906zm0 0" fill="#fbd2e4" data-original="#FBD2E4" class="active-path" data-old_color="#fbd2e4" style="fill:#C0BFBF"></path><path d="m16 416h80v32h-80zm0 0" fill="#666" data-original="#666" class=""></path><path d="m16 416h56v32h-56zm0 0" fill="#999" data-original="#999" class=""></path><path d="m384 416h80v32h-80zm0 0" fill="#666" data-original="#666" class=""></path><path d="m384 416h56v32h-56zm0 0" fill="#999" data-original="#999" class=""></path><path d="m368 448h112v32h-112zm0 0" fill="#808080" data-original="#808080"></path><path d="m368 448h88v32h-88zm0 0" fill="#999" data-original="#999" class=""></path><path d="m0 448h112v32h-112zm0 0" fill="#808080" data-original="#808080"></path><path d="m0 448h88v32h-88zm0 0" fill="#999" data-original="#999" class=""></path><path d="m400 64h48v352h-48zm0 0" fill="#b3b3b3" data-original="#B3B3B3" class=""></path><path d="m400 64h24v352h-24zm0 0" fill="#ccc" data-original="#CCC" class="" data-old_color="#ccc" style="fill:#CCCCCC"></path><path d="m32 64h48v352h-48zm0 0" fill="#b3b3b3" data-original="#B3B3B3" class=""></path><path d="m32 64h24v352h-24zm0 0" fill="#ccc" data-original="#CCC" class="" data-old_color="#ccc" style="fill:#CCCCCC"></path><path d="m152 64h-152v-48h480v48zm0 0" fill="#ccc" data-original="#CCC" class="" data-old_color="#ccc" style="fill:#CCCCCC"></path><path d="m312 16h-312v48h448v-48zm0 0" fill="#e6e6e6" data-original="#E6E6E6" class="" style="fill:#E6E6E6"></path><path d="m184 119.273438 56 40.726562 61.640625-44.832031c16.558594-12.039063 26.359375-31.28125 26.359375-51.761719v-4.894531c0-16.976563-6.742188-33.253907-18.742188-45.253907l-1.539062-1.539062c-7.503906-7.503906-17.679688-11.71875-28.285156-11.71875h-2.175782c-8.488281 0-16.625 3.367188-22.625 9.375l-14.632812 14.625-14.625-14.625c-6.007812-6.007812-14.144531-9.375-22.632812-9.375h-2.175782c-10.605468 0-20.78125 4.214844-28.285156 11.710938l-1.539062 1.535156c-12 12.011718-18.742188 28.289062-18.742188 45.265625v4.894531c0 20.472656 9.800781 39.714844 26.359375 51.761719z" fill="#b2151b" data-original="#B2151B" class=""></path><path d="m279.433594 24h-2.175782c-8.488281 0-16.625 3.367188-22.625 9.375l-14.632812 14.625-14.625-14.625c-6.007812-6.007812-14.144531-9.375-22.632812-9.375h-2.175782c-10.605468 0-20.78125 4.214844-28.285156 11.710938l-1.539062 1.535156c-9.71875 9.722656-15.910157 22.257812-17.941407 35.683594 2.535157 16.796874 11.597657 32.085937 25.558594 42.230468l5.640625 4.113282 56 40.726562 61.640625-44.832031c13.953125-10.152344 23.023437-25.433594 25.558594-42.230469-2.03125-13.425781-8.230469-25.960938-17.941407-35.679688l-1.539062-1.539062c-7.503906-7.503906-17.679688-11.71875-28.285156-11.71875zm0 0" fill="#ed1c24" data-original="#ED1C24" class="" style="fill:#ED1C24"></path></g> </svg>